<svg preserveAspectRatio="xMidYMid meet" data-bbox="3.5 28.502 193 142.998" viewBox="3.5 28.502395629882812 193 142.9976043701172" height="130" width="180" xmlns="http://www.w3.org/2000/svg" data-type="shape" role="img" style="stroke-width: 0px;">
                        <g>
                            <path d="M196.5 70.082v62.855L100.882 171.5 3.5 132.937V70.082l72.424-26.554-.216 3.686L7.109 72.75v57.52l93.773 36.626 92.009-36.626V72.75l-70.207-25.615.286-3.607 73.53 26.554zM84.267 40.215c.948.231 1.901.092 2.823-.218.683-.23 1.361-.475 2.044-.707.62-.211 1.262-.263 1.92-.283-.199.586-.341 1.185-.304 1.808.019.316.08.639.183.937.176.51.213 1.031.195 1.558-.045 1.304-.382 2.52-1.203 3.555-.474.597-1.011 1.145-1.521 1.714-.15.168-.306.331-.459.495a.609.609 0 0 0-.163.522c.047.37.113.741.116 1.112.006.822-.137 1.626-.374 2.413-.154.511-.289 1.025-.271 1.567.021.616.263.936.87 1.052.369.071.75.108 1.126.108.334 0 .438-.141.434-.474a1.824 1.824 0 0 0-.052-.403.575.575 0 0 0-.429-.448c-.532-.158-.564-.197-.547-.763.015-.496.054-.992.101-1.486.015-.155.074-.313.144-.454.442-.892.906-1.772 1.505-2.572.035-.047.073-.093.147-.187.106.344.23.646.29.959.219 1.134.297 2.277.162 3.428-.06.512.055.749.512 1.002.445.246.925.352 1.431.368.268.009.438-.121.551-.341a.351.351 0 0 0 .027-.234 1.418 1.418 0 0 0-.508-.731c-.162-.129-.348-.128-.541-.114-.337.024-.356.008-.395-.317-.087-.719-.149-1.439-.053-2.161.022-.161.076-.322.138-.474.091-.225.208-.438.303-.662.366-.858.97-1.53 1.637-2.166.862-.821 1.7-1.669 2.364-2.668.19-.286.308-.594.365-.934a5.512 5.512 0 0 1 .504-1.603c.147-.289.22-.324.52-.192 1.008.443 2.012.897 3.016 1.348 1.16.522 4.108.962 5.375 1.131.722.096 1.45.149 2.177.197.185.012.278.075.345.233.205.484.311.992.387 1.509.249 1.704.316 3.419.331 5.138.003.397.008.793.019 1.19.004.155.046.285.24.318.066.011.134.097.173.165.3.512.518 1.05.521 1.656.003.72.143.906.86 1.003.492.067.993.056 1.489.099.382.033.491-.366.335-.6a1.412 1.412 0 0 0-.245-.278c-.115-.101-.246-.183-.382-.282.355-.169.401-.374.134-.661a1.768 1.768 0 0 0-.45-.37c-.61-.316-.887-.848-.952-1.49a7.11 7.11 0 0 1 .003-1.345c.111-1.226.237-2.452.385-3.674.105-.863.237-1.723.525-2.551.142-.408.332-.772.63-1.097a9.188 9.188 0 0 0 1.768-2.751c.199-.487.292-.99.306-1.506.201-1.23.697-2.01.865-2.412.063-.15.134-.303.157-.461.043-.294.124-.575.307-.804.339-.422.702-.825 1.076-1.262.113.257.321.281.516.278a30.925 30.925 0 0 0 1.776-.065 2.57 2.57 0 0 0 .7-.176c.249-.093.504-.207.643-.449.15-.261.293-.532.394-.814.077-.213.155-.404.324-.566.189-.182.169-.352-.023-.53a1.325 1.325 0 0 0-.214-.167c-.263-.157-.534-.302-.794-.462-.288-.178-.567-.369-.852-.552-.178-.114-.369-.212-.535-.341a.52.52 0 0 1-.177-.277 4.887 4.887 0 0 1-.096-.713.411.411 0 0 0-.19-.329c-.306-.221-.613-.441-.912-.671a1.542 1.542 0 0 0-.924-.324c-.635-.011-1.271.006-1.907.013-.084.001-.177-.008-.252.023-.448.185-.801.479-1.02.92-.029.059-.056.124-.103.167-.652.599-1.135 1.321-1.513 2.112-.252.526-.597.98-.982 1.407-.264.292-.415.905-.995 1.338l-.112.066c-.23.132-.469.229-.714.309l-.103.024.007.006c-.375.116-.76.196-1.138.304-.663.189-1.31.419-1.909.761-.375.214-.763.33-1.192.363-1.268.096-4.295.144-5.559-.024-.527-.07-1.047-.201-1.572-.292-1.62-.281-3.149-.108-4.563.644-.908.133-1.791.366-2.664.64a.867.867 0 0 0-.139.044c-.285.091-.57.186-.854.284-1.141.392-2.275.808-3.427 1.165-1.055.327-2.096.269-3.106-.24-.65-.328-1.328-.601-1.997-.888-.088-.038-.202-.018-.303-.025l-.095.215c.146.226.256.489.443.673.885.861 1.959 1.41 3.146 1.7z"></path>
                        </g>
</svg>